# xmcd
#
# Track frame offsets:
#	150
#	17147
#	30821
#	45578
#	57581
#	74759
#	88003
#	99815
#	113703
#	128377
#	140001
#	150553
#
# Disc length: 2180 seconds
#
# Revision: 0
# Processed by: cddbd v1.5PL3 Copyright (c) Steve Scherf et al.
# Submitted via: audiograbber 1.83.01
#
DISCID=9408820c
DTITLE=Antonio Aguilar - Rancherisimo Vol. 1 - Antonio Aguilar Interpreta Sus M
DTITLE=ejores Exitos
DYEAR=1900
DGENRE=Ethnic
TTITLE0=Juan Charrasqueado
TTITLE1=Hace Un Ano
TTITLE2=Yo El Aventurero
TTITLE3=Cruz De Palo
TTITLE4=El Dicharachero
TTITLE5=Corrido De Lucio Vazquez
TTITLE6=Las Mananitas Mexicanas
TTITLE7=Cuatro Milpas
TTITLE8=El Patas Blancas
TTITLE9=Echenle Un Quinto Al Piano
TTITLE10=La Mula
TTITLE11=Nieves De Enero
EXTD=
EXTT0=
EXTT1=
EXTT2=
EXTT3=
EXTT4=
EXTT5=
EXTT6=
EXTT7=
EXTT8=
EXTT9=
EXTT10=
EXTT11=
PLAYORDER=
